<svg xmlns:xlink="http://www.w3.org/1999/xlink" class="css-g0144v"  data-e2e=""  viewBox="0 0 20 20" fill="currentColor" xmlns="http://www.w3.org/2000/svg" width="20"  height="20" ><path fill-rule="evenodd" clip-rule="evenodd" d="M11.6667 13.2748C11.6667 12.6798 11.9838 12.13 12.4988 11.8321C13.9977 10.965 15 9.34859 15 7.49998C15 4.73856 12.7614 2.49998 10 2.49998C7.23859 2.49998 5.00001 4.73856 5.00001 7.49998C5.00001 9.34859 6.00237 10.965 7.50122 11.8321C8.01621 12.13 8.33334 12.6798 8.33334 13.2748V14.7916C8.33334 14.9067 8.42662 15 8.54168 15H11.4583C11.5734 15 11.6667 14.9067 11.6667 14.7916V13.2748ZM13.3333 13.2748V15.8333C13.3333 16.2935 12.9602 16.6666 12.5 16.6666H7.50001C7.03977 16.6666 6.66668 16.2935 6.66668 15.8333V13.2748C4.67401 12.1221 3.33334 9.96759 3.33334 7.49998C3.33334 3.81808 6.31811 0.833313 10 0.833313C13.6819 0.833313 16.6667 3.81808 16.6667 7.49998C16.6667 9.96759 15.326 12.1221 13.3333 13.2748Z" fill="#161823"></path><path d="M7.50001 17.9166C7.50001 17.6865 7.68656 17.5 7.91668 17.5H12.0833C12.3135 17.5 12.5 17.6865 12.5 17.9166V18.75C12.5 18.9801 12.3135 19.1666 12.0833 19.1666H7.91668C7.68656 19.1666 7.50001 18.9801 7.50001 18.75V17.9166Z" fill="#161823"></path><path fill-rule="evenodd" clip-rule="evenodd" d="M8.46401 4.45524C8.67291 4.3393 8.92711 4.34959 9.12639 4.48207L12.8301 6.94419C13.014 7.06647 13.125 7.27561 13.125 7.49998C13.125 7.72435 13.014 7.93349 12.8301 8.05576L9.12639 10.5179C8.92711 10.6504 8.67291 10.6607 8.46401 10.5447C8.2551 10.4288 8.12501 10.2052 8.12501 9.9621V5.03786C8.12501 4.79477 8.2551 4.57119 8.46401 4.45524ZM11.2876 7.49998L9.42131 8.74062V6.25934L11.2876 7.49998Z" fill="#161823"></path></svg>