<svg xmlns:xlink="http://www.w3.org/1999/xlink" xmlns="http://www.w3.org/2000/svg"   fill="rgba(22, 24, 35, 1)" class="css-wyuo16-MusicNoteIcon epjbyn4" width="1"  height="1" ><defs><symbol xmlns="http://www.w3.org/2000/svg" viewBox="0 0 48 48" id="Music_Note-8c658968"><path d="M35 10.76a1 1 0 0 0-1.22-.98l-15.99 3.64a1 1 0 0 0-.78.97V38c.03 2.17-2.2 4.43-5.4 5.28-3.56.96-6.96-.2-7.6-2.57-.63-2.37 1.74-5.07 5.3-6.02a9.2 9.2 0 0 1 3.7-.25V14.39a5 5 0 0 1 3.9-4.87l15.98-3.64A5 5 0 0 1 39 10.76v22.36c.08 2.2-2.17 4.5-5.4 5.36-3.56.95-6.96-.2-7.6-2.57-.63-2.38 1.74-5.08 5.3-6.03a9.2 9.2 0 0 1 3.7-.25V10.76Z"></path></symbol></defs><use xlink:href="#Music_Note-8c658968" fill="#161823"></use></svg>